<?xml version="1.0" encoding="UTF-8" standalone="no"?>
<!-- Created with Inkscape (http://www.inkscape.org/) -->

<svg
   width="177.77339mm"
   height="183.23315mm"
   viewBox="0 0 177.77339 183.23315"
   version="1.1"
   id="svg5"
   xml:space="preserve"
   inkscape:version="1.2.2 (b0a8486, 2022-12-01)"
   sodipodi:docname="arrow.svg"
   xmlns:inkscape="http://www.inkscape.org/namespaces/inkscape"
   xmlns:sodipodi="http://sodipodi.sourceforge.net/DTD/sodipodi-0.dtd"
   xmlns="http://www.w3.org/2000/svg"
   xmlns:svg="http://www.w3.org/2000/svg"><sodipodi:namedview
     id="namedview7"
     pagecolor="#ffffff"
     bordercolor="#000000"
     borderopacity="0.25"
     inkscape:showpageshadow="2"
     inkscape:pageopacity="0.0"
     inkscape:pagecheckerboard="0"
     inkscape:deskcolor="#d1d1d1"
     inkscape:document-units="mm"
     showgrid="false"
     inkscape:zoom="0.80444024"
     inkscape:cx="329.42161"
     inkscape:cy="551.31504"
     inkscape:window-width="1387"
     inkscape:window-height="1027"
     inkscape:window-x="196"
     inkscape:window-y="25"
     inkscape:window-maximized="0"
     inkscape:current-layer="layer1" /><defs
     id="defs2" /><g
     inkscape:label="Ebene 1"
     inkscape:groupmode="layer"
     id="layer1"
     transform="translate(39.15865,-64.02104)"><path
       style="fill:#000000;stroke:#f6f6f6;stroke-width:0.75492;stroke-opacity:1"
       d="m 44.75178,241.95716 c -6.37907,-3.63736 -9.713641,-5.01696 -15.128369,-6.25889 -49.454794,-11.34318 -79.191227,-63.00265 -63.734891,-110.7231 1.235363,-3.8141 2.047121,-7.2514 1.803908,-7.63842 -0.243202,-0.38703 -1.802204,-1.45543 -3.464428,-2.37421 -1.662221,-0.91877 -3.016273,-1.86116 -3.009002,-2.09416 0.0072,-0.23315 3.113932,-2.10811 6.903698,-4.16695 5.844415,-3.17501 7.405471,-4.44962 10.282779,-8.39606 5.01139,-6.873441 14.6553749,-16.0144 21.89149394,-20.749626 C 35.966273,56.214233 81.48714,60.36732 112.27766,89.772251 c 2.49393,2.381695 4.73868,4.330344 4.98839,4.330344 0.24973,0 1.90748,-1.051278 3.68404,-2.336193 1.77653,-1.284877 3.41337,-2.155884 3.63738,-1.93555 0.22412,0.220436 0.73721,4.219475 1.14034,8.886959 0.66401,7.688019 1.05101,9.162929 4.11406,15.678979 19.20052,40.84566 4.23515,88.44921 -35.11335,111.6922 -9.96273,5.88493 -24.56038,10.57154 -35.861005,11.51327 l -5.485449,0.45713 -0.223812,4.2818 -0.223813,4.28178 z m 21.09002,-6.48038 c 7.16518,-1.18207 16.2051,-4.23371 23.56688,-7.95551 38.69214,-19.56122 56.8296,-63.2142 43.05972,-103.6356 -1.22412,-3.59342 -3.28329,-8.594 -4.57594,-11.11241 l -2.35025,-4.57893 -8.46629,-3.90743 -8.46627,-3.90743 3.53375,-2.495821 3.53374,-2.495807 -1.52259,-1.952772 C 111.41546,89.922085 101.77888,82.068352 95.62079,78.330195 88.16841,73.806379 80.38984,70.57953 70.8796,68.066603 64.40706,66.356328 62.101369,66.136185 50.270141,66.098918 35.602242,66.052829 29.799844,67.037003 17.709578,71.622484 4.1951519,76.748101 -10.239169,87.493535 -19.11613,99.036898 l -2.930949,3.811322 v 9.9232 9.92317 l -4.200261,-2.33132 -4.200262,-2.33132 -0.654737,1.69835 c -12.214185,31.68311 -5.413888,66.19414 17.803246,90.35018 12.37502494,12.87546 32.1609,23.50232 46.938772,25.21047 4.122136,0.47648 4.400311,0.38648 11.493817,-3.71933 3.998198,-2.31417 7.474673,-4.20762 7.725498,-4.20762 0.250867,0 0.456081,2.20144 0.456081,4.89206 v 4.89209 l 3.996471,-0.46171 c 2.198062,-0.25381 6.036674,-0.79827 8.530254,-1.20966 z M 99.82412,212.1039 c -0.67875,-0.80431 -0.58615,-1.14413 0.41469,-1.52185 1.73802,-0.65592 0.46971,-1.75703 -2.37755,-2.06409 -3.0468,-0.32858 -4.5732,-3.94159 -2.34285,-5.54553 1.10387,-0.79382 1.69214,-0.83388 2.5048,-0.17063 0.90122,0.73561 0.87944,0.96744 -0.14386,1.53064 -1.69124,0.93081 -0.72101,2.06904 1.76367,2.06904 2.49378,0 3.91348,1.22216 3.91348,3.36895 0,1.52029 -1.28556,3.36899 -2.34273,3.36899 -0.28368,0 -0.90902,-0.466 -1.38965,-1.03557 z M -3.5479941,211.15042 c -1.164758,-2.98518 3.85143904,-7.02411 6.044707,-4.86707 1.132287,1.11356 8.1e-5,4.83994 -1.319268,4.34201 -0.70536796,-0.26625 -0.92664596,-0.0337 -0.64791496,0.68058 0.303733,0.77844 -0.143998,1.08485 -1.58512604,1.08485 -1.16752,0 -2.211054,-0.51931 -2.492398,-1.24037 z M 108.18044,209.50004 c -0.46517,-0.85481 -2.40365,-2.45211 -4.30771,-3.54954 -2.20885,-1.27308 -3.19774,-2.25515 -2.73204,-2.71314 0.46569,-0.45799 1.3314,-0.40123 2.39171,0.15675 1.5546,0.81827 1.60444,0.76926 0.77243,-0.75967 -1.28133,-2.35465 0.22499,-3.53358 1.6928,-1.32491 2.79771,4.20985 4.50992,8.2877 3.78095,9.00466 -0.49569,0.48751 -1.04093,0.20968 -1.59814,-0.81423 z M -7.4449511,207.68885 c -0.600429,-0.71149 -0.04894,-1.76169 2.161379,-4.11593 3.020288,-3.21692 4.094594,-3.74402 4.92793204,-2.41793 0.641794,1.02127 -0.276374,2.35919 -3.52035804,5.1296 -2.166511,1.85024 -2.936839,2.15334 -3.568953,1.40426 z m -4.2681639,-4.21967 c -1.579369,-1.71636 -0.743222,-3.83246 2.2855689,-5.78421 1.806554,-1.16416 1.988426,-1.1458 3.398769,0.34302 1.992024,2.10289 1.895093,2.66464 -0.852031,4.93802 -2.802464,2.31917 -3.1298699,2.35328 -4.8323069,0.50317 z m 3.8179029,-3.61291 c -0.527911,-0.51917 -1.972126,0.5357 -1.972126,1.44051 0,0.49642 0.436782,0.43963 1.160247,-0.15082 0.638136,-0.52087 1.003483,-1.10118 0.811879,-1.28964 z m 115.9239721,1.43912 c -2.37948,-2.09094 -2.38985,-2.13098 -1.06631,-4.11761 0.73512,-1.10339 1.56165,-2.00614 1.83679,-2.00614 0.27506,0 1.80112,1.05459 3.39107,2.34352 2.04123,1.65474 2.65307,2.57738 2.08177,3.13922 -0.57128,0.56184 -1.53774,0.27984 -3.2883,-0.95951 l -2.47927,-1.75521 2.10406,2.22404 c 1.91318,2.02224 2.08086,3.24318 0.4454,3.24318 -0.34228,0 -1.70364,-0.95015 -3.02521,-2.11149 z m -124.038925,-3.5662 c -1.189721,-1.40984 -0.44813,-2.87154 2.587903,-5.10083 1.635855,-1.20116 2.223423,-1.30987 2.986069,-0.55242 0.7590029,0.7538 0.7204129,1.07352 -0.192363,1.59374 -0.628018,0.35793 -1.826962,1.20817 -2.66432,1.88942 -0.849717,0.69132 -0.287682,0.53776 1.271885,-0.34747 3.6506679,-2.07222 4.9416459,-0.59478 1.705536,1.95184 -2.595396,2.04245 -4.305205,2.2123 -5.694696,0.56572 z m 129.105585,-1.3088 c -3.55351,-1.90892 -4.95052,-3.42605 -4.41607,-4.79582 0.56798,-1.45571 3.08886,-0.42291 6.18431,2.53371 3.37542,3.22398 2.38383,4.49253 -1.76824,2.26211 z m -132.054474,-3.06936 c -0.65177,-0.77235 0.348096,-1.67672 4.601081,-4.16162 4.226975,-2.46973 5.5734819,-2.95259 6.0626849,-2.17412 0.345879,0.55039 0.561858,1.05487 0.479953,1.12105 -0.08191,0.0663 -2.4353819,1.48859 -5.2299519,3.16093 -4.085476,2.44482 -5.244196,2.84724 -5.913767,2.05376 z m 132.251124,-2.01171 c -3.56594,-2.05467 -4.97612,-3.27533 -4.67509,-4.04684 0.53077,-1.36032 1.008,-1.35636 2.8622,0.0226 1.28272,0.95475 1.56508,0.93014 2.42016,-0.21108 0.91205,-1.2171 1.13038,-1.20652 3.77427,0.18278 2.94777,1.54911 4.28781,3.47201 2.767,3.97058 -0.49402,0.16185 -0.8982,0.75182 -0.8982,1.31086 0,1.93 -1.1629,1.70112 -6.25034,-1.23022 z m 5.48912,-0.25891 c 0,-0.19127 -0.77076,-0.71532 -1.71277,-1.16429 -1.64476,-0.78387 -1.65407,-0.77007 -0.23506,0.34798 1.55309,1.22375 1.94788,1.38918 1.94788,0.81631 z m -140.040253,-1.84876 c -1.298777,-2.38672 -0.910134,-3.69197 1.457884,-4.8963 2.988882,-1.52009 4.389681,-1.43983 5.339655,0.30589 1.262489,2.32001 0.965055,2.92461 -2.226591,4.52598 -3.681433,1.8471 -3.601482,1.84596 -4.570948,0.0645 z m 3.779388,-2.29522 c 0.984035,-0.62542 0.963945,-0.72731 -0.14538,-0.73718 -0.707978,-0.005 -1.498943,0.32543 -1.757701,0.73718 -0.595426,0.94752 0.412303,0.94752 1.903084,0 z m 136.615025,0.0363 c -2.62819,-1.0477 -3.62218,-2.71945 -2.6639,-4.48038 1.07115,-1.96843 3.08276,-1.96611 5.63262,0.005 2.32579,1.79925 2.44695,2.39943 0.80953,4.00983 -1.33457,1.3125 -1.57567,1.34212 -3.77825,0.46408 z m -143.722527,-4.85421 c -0.639577,-1.63917 5.374875,-6.17394 6.585839,-4.96558 0.697197,0.69569 0.566419,1.14412 -0.575375,1.97293 -1.446581,1.05003 -1.443526,1.07258 0.145381,1.07258 1.44548,0 3.053185,1.23987 2.360039,1.82004 -0.146588,0.12282 -2.025769,0.44369 -4.17594,0.71329 -3.072168,0.38518 -4.001609,0.25381 -4.339944,-0.61326 z m 147.935767,-1.35367 c 0,-0.73546 -0.65987,-0.96047 -2.17521,-0.74174 -2.53119,0.36535 -3.61703,-1.31712 -2.35128,-3.64315 0.8679,-1.59492 2.59494,-1.15857 1.95061,0.49284 -0.32027,0.82083 -0.034,0.85252 1.49869,0.1658 2.46467,-1.10444 4.97852,0.90856 3.67421,2.94214 -1.05866,1.65064 -2.59702,2.11508 -2.59702,0.78408 z m -149.452828,-3.4066 c -0.164859,-0.29085 -0.515811,-1.41959 -0.779888,-2.50833 -0.464584,-1.91543 -0.309097,-2.02078 4.799818,-3.2521 2.903976,-0.69992 5.64184,-1.05261 6.084146,-0.78376 1.256576,0.76379 0.98115,4.14374 -0.337663,4.14374 -0.628017,0 -1.14185,-0.33688 -1.14185,-0.74865 0,-0.41179 -0.550483,-0.74867 -1.223296,-0.74867 -0.742874,0 -1.060708,0.41668 -0.809298,1.06103 0.227693,0.58357 -0.09118,1.2517 -0.708608,1.48471 -0.617429,0.23316 -1.309258,-0.0549 -1.5374,-0.63945 -0.228155,-0.58468 -0.878654,-0.88804 -1.445585,-0.67407 -0.566932,0.21392 -0.861451,0.82301 -0.654486,1.35344 0.392065,1.00482 -1.720468,2.23902 -2.24589,1.31211 z m 149.833448,-1.77022 c -1.25604,-0.41186 -2.79753,-0.94238 -3.42557,-1.17893 -0.62802,-0.23656 -1.74131,-0.35712 -2.47399,-0.26797 -0.89147,0.10839 -1.33216,-0.34877 -1.33216,-1.38225 0,-1.47933 1.47555,-2.08961 2.53444,-1.04822 0.27736,0.27277 1.49155,0.60242 2.69791,0.7323 3.80765,0.40997 6.19924,1.61014 5.70956,2.86521 -0.50706,1.29948 -0.58331,1.30525 -3.71019,0.27984 z m 1.56802,-4.5997 c -1.53673,-1.10093 -2.31569,-1.31114 -2.5288,-0.68244 -0.16947,0.49973 -0.78467,0.90861 -1.36732,0.90861 -0.78433,0 -0.93714,-0.63177 -0.58846,-2.43314 0.61821,-3.19413 0.65023,-3.21377 2.88945,-1.7708 1.14471,0.73764 2.64501,1.06138 3.70559,0.79959 1.6266,-0.40153 1.75213,-0.23882 1.43808,1.86574 -0.4533,3.03746 -0.90668,3.20512 -3.54854,1.31244 z m -2.13895,-5.82308 c -3.15959,-1.80989 -0.65349,-5.64631 3.15145,-4.82441 3.11611,0.67311 4.22857,2.11461 3.15478,4.08788 -0.91604,1.68333 -4.02038,2.04592 -6.30623,0.73653 z m 4.27178,-2.56035 c -0.24111,-0.61763 -0.57282,-1.12297 -0.73735,-1.12297 -0.16458,0 -0.29919,0.50534 -0.29919,1.12297 0,0.61765 0.33181,1.12301 0.73735,1.12301 0.40552,0 0.54016,-0.50536 0.29919,-1.12301 z M 12.22763,87.55183 c -0.447486,-1.544125 -1.023979,-4.239302 -1.2811,-5.989283 -0.747383,-5.086767 1.269163,-4.199839 7.699908,3.386667 1.075565,1.268841 1.223118,1.918276 0.579633,2.551113 -0.643487,0.632864 -1.158903,0.607661 -2.024727,-0.09907 -0.977857,-0.798171 -1.28087,-0.639259 -1.916507,1.004985 -1.054628,2.728052 -2.103982,2.434767 -3.057207,-0.854449 z m 8.352962,-2.762434 c -0.417897,-1.054189 -1.093887,-2.758949 -1.502203,-3.788357 -0.482366,-1.216101 -0.482366,-1.904424 0,-1.965221 1.513778,-0.190714 1.907268,-0.318027 2.902116,-0.938213 1.281133,-0.798643 2.019217,-0.07047 3.525433,3.477619 1.193279,2.811013 1.190581,2.822644 -0.8312,3.57862 -1.115604,0.417138 -2.322213,0.937051 -2.681356,1.155342 -0.35914,0.218445 -0.994897,-0.465602 -1.41279,-1.51979 z m 2.378053,-2.422039 c -0.897378,-1.517697 -1.114075,-1.031911 -0.379502,0.85072 0.261068,0.669083 0.635018,1.058798 0.831011,0.866041 0.19599,-0.192694 -0.0072,-0.965305 -0.451509,-1.716761 z m 16.864737,0.755107 c 0.217309,-1.117998 -0.246021,-3.450923 -1.053097,-5.302696 -1.76964,-4.060218 -1.772323,-3.93099 0.08133,-3.93099 0.924102,0 1.54143,0.514934 1.570718,1.310156 0.03694,1.003822 0.209232,0.916266 0.736701,-0.374331 0.378653,-0.926454 1.219864,-1.684473 1.869346,-1.684473 0.825323,0 1.070937,0.507172 0.815729,1.684473 -0.200859,0.926468 -0.74548,3.621645 -1.210326,5.989283 -0.593996,3.025398 -1.194861,4.304785 -2.021786,4.304785 -0.864177,0 -1.073592,-0.530089 -0.788618,-1.996207 z M 27.659381,82.718821 c -1.166469,-1.453811 -1.765439,-4.597444 -1.082913,-5.683576 0.33136,-0.527267 1.555381,-1.029829 2.720047,-1.116747 1.892055,-0.141204 2.226364,0.197493 3.138948,3.18104 0.561758,1.836504 0.95061,3.397417 0.864136,3.468696 -1.004817,0.827994 -5.010868,0.934982 -5.640218,0.150536 z m 2.150366,-3.346119 c -0.663455,-1.122071 -0.812003,-1.15441 -0.831008,-0.180807 -0.02446,1.260798 0.775839,2.396007 1.315351,1.865421 0.17795,-0.174858 -0.04005,-0.933017 -0.484343,-1.684499 z m 3.775851,-1.892959 c -0.500835,-2.592683 -1.085462,-5.303513 -1.299146,-6.024124 -0.27382,-0.923339 0.04017,-1.310143 1.063323,-1.310143 1.204118,0 1.620151,0.926174 2.438142,5.427775 1.15498,6.356119 1.163142,6.113992 -0.215637,6.398454 -0.767394,0.158172 -1.33727,-1.130191 -1.986682,-4.491962 z m 20.16446,2.719167 c -2.184999,-2.148926 -0.9453,-7.05878 1.782296,-7.05878 2.226817,0 3.315032,1.871817 2.702438,4.648461 -0.788043,3.57184 -2.414753,4.44609 -4.484734,2.410319 z m 2.229331,-1.81817 c 0.258762,-0.411763 0.107741,-0.748647 -0.335683,-0.748647 -0.443397,0 -0.806164,0.336884 -0.806164,0.748647 0,0.411763 0.151049,0.748648 0.335684,0.748648 0.184621,0 0.547401,-0.336885 0.806163,-0.748648 z m -9.891126,0.935826 c 1.144909,-2.7351 1.286167,-3.930455 0.464481,-3.930455 -0.467501,0 -0.850018,-0.505371 -0.850018,-1.123003 0,-0.788353 0.809226,-1.122978 2.715628,-1.122978 2.844594,0 2.882156,0.125883 1.285254,4.304785 -0.196674,0.514691 0.02163,0.935825 0.485088,0.935825 0.46347,0 0.842672,0.505333 0.842672,1.122978 0,0.790664 -0.812569,1.123003 -2.745759,1.123003 -2.316451,0 -2.660015,-0.204873 -2.197346,-1.310155 z"
       id="path67210" /><path
       style="fill:#c0bfbc;fill-opacity:1;fill-rule:evenodd;stroke:#171717;stroke-width:1.4;stroke-miterlimit:0;stroke-dasharray:none;stroke-opacity:1"
       d="m 47.855481,243.51166 c -9.172557,-5.29234 -11.468666,-6.23838 -21.78317,-8.9751 -32.9778486,-8.74992 -58.327055,-37.57684 -63.220376,-71.8937 -1.913336,-13.41823 -0.953884,-23.5917 3.717315,-39.41624 0.659005,-2.23251 1.198192,-4.56545 1.198192,-5.18432 0,-1.01329 -0.188135,-1.24301 -1.891196,-2.30927 -1.040158,-0.65122 -2.462061,-1.55001 -3.159786,-1.9973 l -1.268589,-0.81325 1.104138,-0.74871 c 0.607275,-0.41179 3.028224,-1.82141 5.379885,-3.13249 5.995509,-3.34256 7.313162,-4.42873 10.904163,-8.98852 3.55047,-4.508333 11.6725955,-12.748947 15.9014837,-16.133465 C -1.1309297,80.612696 3.5094518,77.631956 8.7039422,74.948004 34.076446,61.838231 62.978191,61.306723 88.310629,73.484022 c 8.611296,4.139452 15.576871,8.944229 23.825351,16.434475 2.61192,2.37182 4.91315,4.312399 5.11384,4.312399 0.20069,0 1.81385,-0.962044 3.5848,-2.137873 1.77095,-1.175833 3.33663,-2.137876 3.47928,-2.137876 0.2686,0 0.74302,3.449865 1.33429,9.70266 0.64773,6.849873 1.01212,8.174543 4.20709,15.294023 6.15628,13.71826 8.70768,26.92872 7.9212,41.01374 -1.28412,22.99717 -11.88669,44.63533 -29.33884,59.87587 -3.9041,3.40937 -8.629569,6.90928 -12.562227,9.30419 -10.114875,6.15979 -24.488759,10.98927 -36.179402,12.15593 -6.952528,0.69382 -6.298642,0.4737 -6.535248,2.19993 -0.114001,0.83174 -0.207275,2.67564 -0.207275,4.09757 0,1.42193 -0.111006,2.58173 -0.246679,2.57735 -0.135673,-0.004 -2.318771,-1.20353 -4.851328,-2.66475 z m 12.244231,-7.04442 c 9.206015,-1.24809 14.346171,-2.53101 21.797295,-5.44032 29.707183,-11.59925 50.250143,-37.55299 54.648173,-69.04187 0.56996,-4.08074 0.57893,-17.28449 0.0144,-21.21429 -0.81238,-5.65537 -2.06191,-11.10028 -3.64812,-15.89698 -1.78326,-5.39254 -4.58251,-12.04731 -6.30613,-14.99182 l -1.13869,-1.94527 -7.98975,-3.68739 c -4.39437,-2.02806 -7.98584,-3.81681 -7.98106,-3.97499 0.005,-0.15818 1.37044,-1.249643 3.0348,-2.425475 1.66435,-1.17583 3.08976,-2.330151 3.16757,-2.565157 0.22155,-0.669147 -7.56035,-8.140718 -11.9291,-11.453386 -9.922949,-7.524219 -18.490946,-11.814577 -30.417439,-15.231303 -8.35125,-2.392482 -9.183304,-2.482766 -22.864955,-2.480982 -13.145305,0.0016 -16.095573,0.258828 -22.720239,1.980062 -11.11594,2.888165 -23.4546695,9.107289 -32.700026,16.48189 -4.266766,3.403407 -10.571614,9.702049 -14.097465,14.083591 l -3.169976,3.9393 -0.164452,9.78682 -0.164452,9.78683 -3.900098,-2.16257 c -2.145054,-1.18942 -4.020952,-2.03793 -4.168661,-1.88559 -0.515009,0.53114 -2.998336,8.20351 -4.081779,12.61086 -1.894158,7.70527 -2.304494,11.35156 -2.31333,20.55648 -0.0051,5.28945 0.151293,9.27852 0.438358,11.18272 2.92369,19.39387 10.779686,35.24336 24.050691,48.52235 12.2851103,12.29249 29.545482,21.6961 44.374621,24.17571 5.519581,0.92294 5.974339,0.78677 15.541381,-4.6537 2.666471,-1.51634 4.983213,-2.75698 5.148313,-2.75698 0.379748,0 0.722796,3.22296 0.722796,6.79077 0,1.57728 0.137451,2.74743 0.322723,2.74743 0.177496,0 3.100068,-0.37653 6.494598,-0.83674 z"
       id="path67281" /></g></svg>
