<?xml version="1.0" encoding="UTF-8" standalone="no"?>
<!-- Created with Inkscape (http://www.inkscape.org/) -->

<svg
   width="210mm"
   height="297mm"
   viewBox="0 0 210 297"
   version="1.1"
   id="svg5"
   xml:space="preserve"
   inkscape:version="1.2.2 (b0a8486, 2022-12-01)"
   sodipodi:docname="hook.svg"
   xmlns:inkscape="http://www.inkscape.org/namespaces/inkscape"
   xmlns:sodipodi="http://sodipodi.sourceforge.net/DTD/sodipodi-0.dtd"
   xmlns="http://www.w3.org/2000/svg"
   xmlns:svg="http://www.w3.org/2000/svg"><sodipodi:namedview
     id="namedview7"
     pagecolor="#ffffff"
     bordercolor="#000000"
     borderopacity="0.25"
     inkscape:showpageshadow="2"
     inkscape:pageopacity="0.0"
     inkscape:pagecheckerboard="0"
     inkscape:deskcolor="#d1d1d1"
     inkscape:document-units="mm"
     showgrid="false"
     inkscape:zoom="0.78127806"
     inkscape:cx="284.14979"
     inkscape:cy="562.5398"
     inkscape:window-width="1387"
     inkscape:window-height="1027"
     inkscape:window-x="196"
     inkscape:window-y="25"
     inkscape:window-maximized="0"
     inkscape:current-layer="layer1" /><defs
     id="defs2" /><g
     inkscape:label="Ebene 1"
     inkscape:groupmode="layer"
     id="layer1"><g
       id="g2724"
       transform="matrix(0.44483422,0,0,0.46469944,-40.374293,58.71814)"
       style="fill:#e5ac23;fill-opacity:1"><g
         id="g2705"
         style="fill:#e5ac23;fill-opacity:1"><path
           d="M 3.707,2.293 A 1,1 0 0 0 2,3 v 58 a 1,1 0 0 0 1,1 h 58 a 1,1 0 0 0 0.707,-1.707 z M 4,60 V 5.414 L 9.586,11 7.293,13.293 a 1,1 0 1 0 1.414,1.414 L 11,12.414 12.586,14 11.293,15.293 a 1,1 0 1 0 1.414,1.414 L 14,15.414 15.586,17 13.293,19.293 a 1,1 0 1 0 1.414,1.414 L 17,18.414 18.586,20 17.293,21.293 a 1,1 0 1 0 1.414,1.414 L 20,21.414 21.586,23 19.293,25.293 a 1,1 0 1 0 1.414,1.414 L 23,24.414 24.586,26 23.293,27.293 a 1,1 0 1 0 1.414,1.414 L 26,27.414 27.586,29 25.293,31.293 a 1,1 0 1 0 1.414,1.414 L 29,30.414 30.586,32 29.293,33.293 a 1,1 0 1 0 1.414,1.414 L 32,33.414 33.586,35 31.293,37.293 a 1,1 0 1 0 1.414,1.414 L 35,36.414 36.586,38 35.293,39.293 a 1,1 0 1 0 1.414,1.414 L 38,39.414 39.586,41 37.293,43.293 a 1,1 0 1 0 1.414,1.414 L 41,42.414 42.586,44 41.293,45.293 a 1,1 0 1 0 1.414,1.414 L 44,45.414 45.586,47 43.293,49.293 a 1,1 0 1 0 1.414,1.414 L 47,48.414 48.586,50 47.293,51.293 a 1,1 0 1 0 1.414,1.414 L 50,51.414 51.586,53 49.293,55.293 a 1,1 0 1 0 1.414,1.414 L 53,54.414 58.586,60 Z"
           id="path2697"
           style="fill:#e5ac23;fill-opacity:1" /><path
           d="M 11.707,24.293 A 1,1 0 0 0 10,25 v 28 a 1,1 0 0 0 1,1 h 28 a 1,1 0 0 0 0.707,-1.707 z M 12,52 V 27.414 L 36.586,52 Z"
           id="path2699"
           style="fill:#e5ac23;fill-opacity:1" /><path
           d="m 59.949,41.684 a 1,1 0 0 0 -0.242,-0.391 l -2,-2 -34,-34 -2.171,-2.172 v 0 a 3.828,3.828 0 1 0 -5.413,5.414 l 2.171,2.172 34,34 2,2 a 1.011,1.011 0 0 0 0.391,0.241 l 6,2 A 0.987,0.987 0 0 0 61,49 1,1 0 0 0 61.949,47.684 Z M 17,5.828 A 1.829,1.829 0 0 1 20.122,4.535 L 21.586,6 19,8.586 17.535,7.121 A 1.842,1.842 0 0 1 17,5.828 Z m 6,1.586 31.649,31.649 c -0.008,0 -0.013,0.009 -0.021,0.012 a 0.714,0.714 0 0 0 -0.071,0.04 0.982,0.982 0 0 0 -0.438,0.435 c -0.016,0.032 -0.034,0.062 -0.048,0.1 A 0.993,0.993 0 0 0 54,40 v 1 h -1 a 0.993,0.993 0 0 0 -0.354,0.071 c -0.034,0.013 -0.063,0.032 -0.1,0.048 a 0.969,0.969 0 0 0 -0.2,0.138 0.879,0.879 0 0 0 -0.083,0.078 0.988,0.988 0 0 0 -0.147,0.219 0.794,0.794 0 0 0 -0.042,0.075 c 0,0.007 -0.009,0.013 -0.012,0.02 L 20.414,10 Z M 55.54,45.126 54,43.586 V 43 h 1 a 1,1 0 0 0 1,-1 v -1 h 0.586 l 1.54,1.54 1.293,3.879 z"
           id="path2701"
           style="fill:#e5ac23;fill-opacity:1" /><path
           d="m 58.707,13.293 -11,-11 a 1,1 0 0 0 -1.414,0 l -9,9 a 1,1 0 0 0 0,1.414 l 11,11 1.171,1.172 a 5.007,5.007 0 0 0 7.072,0 l 3.342,-3.344 a 5,5 0 0 0 0,-7.07 z M 47,4.414 56.586,14 49,21.586 39.414,12 Z m 11.464,15.707 -3.342,3.344 a 3.005,3.005 0 0 1 -4.244,0 L 50.414,23 58,15.414 l 0.464,0.465 a 3,3 0 0 1 0,4.242 z"
           id="path2703"
           style="fill:#e5ac23;fill-opacity:1" /></g></g><g
       id="g3634"
       transform="translate(-64.683006,-47.41163)"><path
         style="fill:#f6edd0;stroke-width:0.264583"
         d="m 122.24086,194.67988 c 0.1819,-0.0734 0.47956,-0.0734 0.66146,0 0.1819,0.0734 0.0331,0.13346 -0.33073,0.13346 -0.3638,0 -0.51263,-0.0601 -0.33073,-0.13346 z m -9.20191,-6.3732 -1.71215,-1.78594 1.78594,1.71215 c 1.65885,1.59031 1.90688,1.85972 1.71215,1.85972 -0.0406,0 -0.84426,-0.80367 -1.78594,-1.78593 z m 4.22673,-15.08125 -0.9118,-0.99219 0.99219,0.9118 c 0.92351,0.84868 1.11384,1.07257 0.9118,1.07257 -0.0442,0 -0.4907,-0.44648 -0.99219,-0.99218 z m -23.426517,-4.10104 -0.504029,-0.59532 0.595313,0.50403 c 0.559445,0.47366 0.715761,0.6866 0.504028,0.6866 -0.05021,0 -0.318098,-0.26789 -0.595312,-0.59531 z m -3.96875,-3.70417 -0.504028,-0.59531 0.595312,0.50402 c 0.559446,0.47367 0.715761,0.6866 0.504029,0.6866 -0.05021,0 -0.318098,-0.26789 -0.595313,-0.59531 z m 15.358527,-4.23333 -1.04589,-1.12448 1.12448,1.04588 c 1.04575,0.97266 1.24606,1.20307 1.04588,1.20307 -0.0432,0 -0.54924,-0.50601 -1.12447,-1.12447 z m -4.9161,-4.63021 c -0.329105,-0.41965 -0.319747,-0.42901 0.0999,-0.0999 0.25466,0.19972 0.46302,0.40808 0.46302,0.46302 0,0.21776 -0.21727,0.0776 -0.56292,-0.36312 z M 79.047635,147.4947 c 0.263389,-0.29104 0.53842,-0.52917 0.611181,-0.52917 0.07276,0 -0.08321,0.23813 -0.346598,0.52917 -0.263389,0.29104 -0.53842,0.52917 -0.61118,0.52917 -0.07276,0 0.08321,-0.23813 0.346597,-0.52917 z M 175.71909,97.81918 c -0.32911,-0.419643 -0.31975,-0.429002 0.0999,-0.09989 0.25467,0.199719 0.46303,0.408078 0.46303,0.463021 0,0.217761 -0.21728,0.0776 -0.56292,-0.363127 z m -5.7159,-2.366166 c 0.25743,-0.06708 0.61462,-0.06267 0.79375,0.0098 0.17913,0.07248 -0.0315,0.127362 -0.46806,0.12197 -0.43656,-0.0054 -0.58313,-0.06469 -0.32569,-0.131774 z"
         id="path3648" /><path
         style="fill:#f2e4b3;stroke-width:0.264583"
         d="m 116.3456,191.61397 -1.57922,-1.65365 1.65365,1.57922 c 0.9095,0.86857 1.65364,1.61271 1.65364,1.65365 0,0.1955 -0.26111,-0.0431 -1.72807,-1.57922 z m -1.5875,-20.90208 -1.57922,-1.65365 1.65365,1.57922 c 0.9095,0.86857 1.65364,1.61271 1.65364,1.65364 0,0.1955 -0.26111,-0.0431 -1.72807,-1.57921 z m -7.68128,-7.67292 -0.7771,-0.8599 0.85989,0.77711 c 0.80155,0.72437 0.98151,0.94268 0.77711,0.94268 -0.0455,0 -0.43249,-0.38695 -0.8599,-0.85989 z m -5.97023,-5.68854 c -0.32911,-0.41965 -0.31975,-0.42901 0.0999,-0.0999 0.25466,0.19972 0.46302,0.40808 0.46302,0.46302 0,0.21776 -0.21727,0.0776 -0.56292,-0.36312 z m 63.79833,-59.432707 c 0,-0.05494 0.20836,-0.263301 0.46302,-0.463021 0.41965,-0.329107 0.42901,-0.319749 0.0999,0.0999 -0.34564,0.440729 -0.56292,0.580887 -0.56292,0.363126 z"
         id="path3646" /><path
         style="fill:#ecd78f;stroke-width:0.264583"
         d="m 101.93067,176.92959 -3.833036,-3.9026 3.902606,3.83304 c 2.14643,2.10816 3.9026,3.86434 3.9026,3.9026 0,0.18935 -0.41139,-0.20762 -3.97217,-3.83304 z m 8.59742,-10.45104 -2.64087,-2.71198 2.71198,2.64087 c 1.49158,1.45248 2.71198,2.67287 2.71198,2.71198 0,0.19139 -0.33024,-0.12197 -2.78309,-2.64087 z m -18.152748,1.19063 c -0.329107,-0.41965 -0.319748,-0.42901 0.0999,-0.0999 0.254661,0.19972 0.46302,0.40808 0.46302,0.46302 0,0.21776 -0.217273,0.0776 -0.562917,-0.36312 z m 9.524998,-9.525 c -0.32911,-0.41965 -0.31975,-0.42901 0.0999,-0.0999 0.25466,0.19972 0.46302,0.40808 0.46302,0.46302 0,0.21776 -0.21727,0.0776 -0.56292,-0.36312 z M 84.405447,145.2028 c 0.181901,-0.0734 0.479558,-0.0734 0.661459,0 0.181901,0.0734 0.03307,0.13346 -0.33073,0.13346 -0.363802,0 -0.51263,-0.0601 -0.330729,-0.13346 z"
         id="path3644" /><path
         style="fill:#e5c762;stroke-width:0.264583"
         d="m 127.2018,192.73845 c 0.26339,-0.29104 0.53842,-0.52917 0.61118,-0.52917 0.0728,0 -0.0832,0.23813 -0.3466,0.52917 -0.26339,0.29104 -0.53842,0.52916 -0.61118,0.52916 -0.0728,0 0.0832,-0.23812 0.3466,-0.52916 z m -19.98508,-10.51719 -1.44617,-1.52135 1.52135,1.44617 c 0.83675,0.79539 1.52136,1.48 1.52136,1.52135 0,0.19639 -0.253,-0.0328 -1.59654,-1.44617 z m -9.929481,-9.92187 -0.777105,-0.8599 0.859896,0.7771 c 0.801545,0.72438 0.981511,0.94269 0.777105,0.94269 -0.04554,0 -0.432488,-0.38695 -0.859896,-0.85989 z m 5.406851,-13.36146 c -0.32911,-0.41965 -0.31975,-0.42901 0.0999,-0.0999 0.25466,0.19972 0.46302,0.40808 0.46302,0.46302 0,0.21776 -0.21727,0.0776 -0.56292,-0.36312 z"
         id="path3642" /><path
         style="fill:#e1bd44;stroke-width:0.264583"
         d="m 109.87159,184.93324 c -0.64268,-0.65485 -1.10898,-1.19063 -1.03622,-1.19063 0.0728,0 0.65812,0.53578 1.30081,1.19063 0.64268,0.65484 1.10898,1.19062 1.03621,1.19062 -0.0728,0 -0.65812,-0.53578 -1.3008,-1.19062 z m -14.30174,-14.35365 -0.911799,-0.99218 0.992187,0.9118 c 0.923507,0.84868 1.113841,1.07257 0.911799,1.07257 -0.04421,0 -0.490698,-0.44648 -0.992187,-0.99219 z m -4.517424,-4.23333 c -0.329107,-0.41964 -0.319749,-0.429 0.0999,-0.0999 0.254661,0.19973 0.463021,0.40808 0.463021,0.46303 0,0.21776 -0.217273,0.0776 -0.562917,-0.36313 z m 12.435414,-6.61458 c -0.32911,-0.41965 -0.31975,-0.42901 0.0999,-0.0999 0.44073,0.34565 0.58089,0.56292 0.36312,0.56292 -0.0549,0 -0.2633,-0.20836 -0.46302,-0.46302 z m -24.729927,-4.10104 -0.504028,-0.59532 0.595313,0.50403 c 0.559446,0.47366 0.715761,0.6866 0.504028,0.6866 -0.05021,0 -0.318098,-0.26789 -0.595313,-0.59531 z"
         id="path3640" /><path
         style="fill:#ddb42b;stroke-width:0.264583"
         d="m 112.64144,187.64522 -1.57922,-1.65365 1.65364,1.57922 c 0.90951,0.86857 1.65365,1.61271 1.65365,1.65365 0,0.1955 -0.26112,-0.0431 -1.72807,-1.57922 z m 5.01022,-13.75833 -0.50403,-0.59532 0.59532,0.50403 c 0.55944,0.47366 0.71576,0.6866 0.50402,0.6866 -0.0502,0 -0.31809,-0.26789 -0.59531,-0.59531 z m -23.547914,-4.7625 -0.504028,-0.59532 0.595312,0.50403 c 0.559446,0.47366 0.715762,0.6866 0.504029,0.6866 -0.05021,0 -0.318098,-0.26789 -0.595313,-0.59531 z m -3.84507,-3.57188 c -0.329107,-0.41964 -0.319749,-0.429 0.0999,-0.0999 0.254661,0.19973 0.463021,0.40808 0.463021,0.46303 0,0.21776 -0.217273,0.0776 -0.562917,-0.36313 z m 14.571594,-4.49792 -0.9118,-0.99218 0.99218,0.9118 c 0.92351,0.84868 1.11384,1.07257 0.9118,1.07257 -0.0442,0 -0.4907,-0.44648 -0.99218,-0.99219 z M 78.915343,147.92397 c 0,-0.0549 0.20836,-0.2633 0.463021,-0.46302 0.419644,-0.32911 0.429002,-0.31975 0.09989,0.0999 -0.345643,0.44073 -0.562916,0.58089 -0.562916,0.36313 z M 175.45451,97.81918 c -0.32911,-0.419643 -0.31975,-0.429002 0.0999,-0.09989 0.44073,0.345643 0.58089,0.562915 0.36313,0.562915 -0.0549,0 -0.2633,-0.208359 -0.46302,-0.463021 z"
         id="path3638" /><path
         style="fill:#d9ab0f;stroke-width:0.264583"
         d="m 120.8518,194.34663 c -0.43656,-0.12011 -1.1026,-0.34249 -1.48008,-0.49417 -0.37748,-0.15168 -6.68779,-6.27751 -14.02291,-13.61295 -12.248202,-12.24873 -16.917847,-16.63729 -24.184508,-22.72869 -3.611693,-3.02757 -4.319116,-4.47765 -3.516074,-7.2073 0.472166,-1.60495 2.861982,-3.9159 4.670871,-4.51671 1.662724,-0.55227 3.665382,-0.4638 5.107858,0.22564 2.7798,1.32863 17.815223,14.97095 27.424673,24.88366 1.93866,1.99984 3.58862,3.57229 3.66657,3.49434 0.078,-0.0779 0.76112,-1.96443 1.51816,-4.19218 4.75906,-14.00453 13.26288,-28.90688 27.8641,-48.82989 15.66894,-21.379877 17.69581,-24.003992 19.17221,-24.821569 2.77645,-1.537491 6.46552,-0.827555 8.73117,1.680253 1.87926,2.080116 1.97919,4.390076 0.29978,6.929646 -0.53098,0.80293 -4.73995,6.52002 -9.35328,12.70466 -9.78011,13.11124 -13.49891,18.28624 -17.58717,24.47395 -11.55422,17.48767 -17.32562,30.75792 -20.35969,46.81335 -0.46265,2.44818 -1.27656,3.65541 -3.0851,4.57594 -1.29006,0.65662 -3.64627,0.95779 -4.86658,0.62202 z"
         id="path3636" /></g></g></svg>
